<svg xmlns="http://www.w3.org/2000/svg" viewBox="0 0 100 100">
  <defs>
    <linearGradient id="grad1" x1="0%" y1="0%" x2="100%" y2="100%">
      <stop offset="0%" style="stop-color:#a855f7;stop-opacity:1" />
      <stop offset="50%" style="stop-color:#9333ea;stop-opacity:1" />
      <stop offset="100%" style="stop-color:#7e22ce;stop-opacity:1" />
    </linearGradient>
  </defs>
  
  <!-- Background rounded square -->
  <rect width="100" height="100" rx="20" fill="url(#grad1)"/>
  
  <!-- Heart shape -->
  <path d="M50 75 C35 65, 25 55, 25 42 C25 32, 32 25, 40 25 C45 25, 48 27, 50 30 C52 27, 55 25, 60 25 C68 25, 75 32, 75 42 C75 55, 65 65, 50 75 Z" fill="white"/>
  
  <!-- Plus sign overlay -->
  <line x1="50" y1="35" x2="50" y2="55" stroke="url(#grad1)" stroke-width="4" stroke-linecap="round"/>
  <line x1="40" y1="45" x2="60" y2="45" stroke="url(#grad1)" stroke-width="4" stroke-linecap="round"/>
  
  <!-- Pulse line -->
  <path d="M10 82 L25 82 L30 75 L35 85 L40 75 L45 82 L90 82" 
        stroke="white" 
        stroke-width="2.5" 
        fill="none" 
        stroke-linecap="round"
        stroke-linejoin="round"
        opacity="0.7"/>
</svg>
